{"title":"Good Luck Charlie S02E19 Sun Show - Part 2.avi","uid":6619008,"size":333454672,"categoryP":"video","categoryS":"tv_shows","magnet":"?xt=urn:btih:b7a2a0bbbdd0885407381d007c0c64b51ed00641&amp;dn=Good+Luck+Charlie+S02E19+Sun+Show+-+Part+2.avi&amp;tr=udp%3A%2F%2Ftracker.openbittorrent.com%3A80&amp;tr=udp%3A%2F%2Fopen.demonii.com%3A1337&amp;tr=udp%3A%2F%2Ftracker.coppersurfer.tk%3A6969&amp;tr=udp%3A%2F%2Fexodus.desync.com%3A6969","seeders":2,"leechers":0,"uploader":"McPay","files":1,"time":1313916162,"description":"Good Luck Charlie S02E19 Sun Show - Part 2.avi\n\n\n\nMedia-Info:\n\nFormat                           : AVI\nFormat/Info                      : Audio Video Interleave\nFile size                        : 318 MiB\nDuration                         : 22mn 39s\nOverall bit rate                 : 1 962 Kbps\nWriting application              : Lavf52.23.1\n\nVideo\nID                               : 0\nFormat                           : MPEG-4 Visual\nFormat profile                   : Simple@L1\nFormat settings, BVOP            : No\nFormat settings, QPel            : No\nFormat settings, GMC             : No warppoints\nFormat settings, Matrix          : Default (H.263)\nCodec ID                         : XVID\nCodec ID/Hint                    : XviD\nDuration                         : 22mn 38s\nBit rate                         : 1 824 Kbps\nWidth                            : 720 pixels\nHeight                           : 480 pixels\nDisplay aspect ratio             : 3:2\nFrame rate                       : 23.976 fps\nStandard                         : NTSC\nColor space                      : YUV\nChroma subsampling               : 4:2:0\nBit depth                        : 8 bits\nScan type                        : Progressive\nCompression mode                 : Lossy\nBits/(Pixel*Frame)               : 0.220\nStream size                      : 295 MiB (93%)\nWriting library                  : Lavc52.15.0\n\nAudio\nID                               : 1\nFormat                           : MPEG Audio\nFormat version                   : Version 1\nFormat profile                   : Layer 3\nMode                             : Joint stereo\nMode extension                   : MS Stereo\nCodec ID                         : 55\nCodec ID/Hint                    : MP3\nDuration                         : 22mn 39s\nBit rate mode                    : Constant\nBit rate                         : 128 Kbps\nChannel(s)                       : 2 channels\nSampling rate                    : 44.1 KHz\nCompression mode                 : Lossy\nStream size                      : 20.7 MiB (7%)\nAlignment                        : Aligned on interleaves\nInterleave, duration             : 26 ms (0.63 video frame)\nWriting library                  : LAME3.98.2\n\n","torrent":{"xt":"urn:btih:b7a2a0bbbdd0885407381d007c0c64b51ed00641","amp;dn":"Good+Luck+Charlie+S02E19+Sun+Show+-+Part+2.avi","amp;tr":["udp%3A%2F%2Ftracker.openbittorrent.com%3A80","udp%3A%2F%2Fopen.demonii.com%3A1337","udp%3A%2F%2Ftracker.coppersurfer.tk%3A6969","udp%3A%2F%2Fexodus.desync.com%3A6969"],"infoHash":"b7a2a0bbbdd0885407381d007c0c64b51ed00641","infoHashBuffer":{"type":"Buffer","data":[183,162,160,187,189,208,136,84,7,56,29,0,124,12,100,181,30,208,6,65]},"announce":[],"urlList":[]}}